<svg width="1058" height="1171" viewBox="0 0 1058 1171" fill="none" xmlns="http://www.w3.org/2000/svg">
<path d="M281.441 216.062V927H135.445V216.062H281.441Z" fill="#563CC9"/>
<path d="M418.648 216.062H683.785C738.147 216.062 784.859 224.201 823.922 240.477C863.31 256.753 893.583 280.841 914.742 312.742C935.901 344.643 946.48 383.868 946.48 430.418C946.48 468.504 939.97 501.219 926.949 528.562C914.254 555.581 896.188 578.204 872.75 596.434C849.638 614.337 822.457 628.66 791.207 639.402L744.82 663.816H514.352L513.375 549.559H684.762C710.478 549.559 731.799 545.001 748.727 535.887C765.654 526.772 778.349 514.077 786.812 497.801C795.602 481.525 799.996 462.645 799.996 441.16C799.996 418.374 795.764 398.68 787.301 382.078C778.837 365.477 765.979 352.781 748.727 343.992C731.474 335.203 709.827 330.809 683.785 330.809H565.133V927H418.648V216.062ZM816.109 927L654 610.105L808.785 609.129L972.848 920.164V927H816.109Z" fill="#FFA011"/>
</svg>
