<svg width="1562" height="1599" viewBox="0 0 1562 1599" fill="none" xmlns="http://www.w3.org/2000/svg">
<path d="M533.441 430.062V1141H387.445V430.062H533.441Z" fill="#563CC9"/>
<path d="M670.648 430.062H935.785C990.147 430.062 1036.86 438.201 1075.92 454.477C1115.31 470.753 1145.58 494.841 1166.74 526.742C1187.9 558.643 1198.48 597.868 1198.48 644.418C1198.48 682.504 1191.97 715.219 1178.95 742.562C1166.25 769.581 1148.19 792.204 1124.75 810.434C1101.64 828.337 1074.46 842.66 1043.21 853.402L996.82 877.816H766.352L765.375 763.559H936.762C962.478 763.559 983.799 759.001 1000.73 749.887C1017.65 740.772 1030.35 728.077 1038.81 711.801C1047.6 695.525 1052 676.645 1052 655.16C1052 632.374 1047.76 612.68 1039.3 596.078C1030.84 579.477 1017.98 566.781 1000.73 557.992C983.474 549.203 961.827 544.809 935.785 544.809H817.133V1141H670.648V430.062ZM1068.11 1141L906 824.105L1060.79 823.129L1224.85 1134.16V1141H1068.11Z" fill="#FFA011"/>
</svg>
