<svg width="131" height="24" viewBox="0 0 131 24" fill="none" xmlns="http://www.w3.org/2000/svg">
<path d="M4.57715 1.67188V23H0.197266V1.67188H4.57715ZM12.6484 0.485352V23H8.42969V0.485352H12.6484ZM22.6387 7.15039L15.7539 15.002L12.0625 18.7373L10.5244 15.6904L13.4541 11.9697L17.5703 7.15039H22.6387ZM18.2588 23L13.5713 15.6758L16.4863 13.127L23.1221 23H18.2588ZM28.6738 0.485352V23H24.4551V0.485352H28.6738ZM38.6641 7.15039L31.7793 15.002L28.0879 18.7373L26.5498 15.6904L29.4795 11.9697L33.5957 7.15039H38.6641ZM34.2842 23L29.5967 15.6758L32.5117 13.127L39.1475 23H34.2842ZM44.9336 7.15039V23H40.7002V7.15039H44.9336ZM40.4365 3.01953C40.4365 2.4043 40.6514 1.89648 41.0811 1.49609C41.5107 1.0957 42.0869 0.895508 42.8096 0.895508C43.5225 0.895508 44.0938 1.0957 44.5234 1.49609C44.9629 1.89648 45.1826 2.4043 45.1826 3.01953C45.1826 3.63477 44.9629 4.14258 44.5234 4.54297C44.0938 4.94336 43.5225 5.14355 42.8096 5.14355C42.0869 5.14355 41.5107 4.94336 41.0811 4.54297C40.6514 4.14258 40.4365 3.63477 40.4365 3.01953Z" fill="white"/>
<path d="M56.1543 1.67188H64.1084C65.7393 1.67188 67.1406 1.91602 68.3125 2.4043C69.4941 2.89258 70.4023 3.61523 71.0371 4.57227C71.6719 5.5293 71.9893 6.70605 71.9893 8.10254C71.9893 9.24512 71.7939 10.2266 71.4033 11.0469C71.0225 11.8574 70.4805 12.5361 69.7773 13.083C69.084 13.6201 68.2686 14.0498 67.3311 14.3721L65.9395 15.1045H59.0254L58.9961 11.6768H64.1377C64.9092 11.6768 65.5488 11.54 66.0566 11.2666C66.5645 10.9932 66.9453 10.6123 67.1992 10.124C67.4629 9.63574 67.5947 9.06934 67.5947 8.4248C67.5947 7.74121 67.4678 7.15039 67.2139 6.65234C66.96 6.1543 66.5742 5.77344 66.0566 5.50977C65.5391 5.24609 64.8896 5.11426 64.1084 5.11426H60.5488V23H56.1543V1.67188ZM68.0781 23L63.2148 13.4932L67.8584 13.4639L72.7803 22.7949V23H68.0781ZM83.6641 19.4258V12.3652C83.6641 11.8574 83.5811 11.4229 83.415 11.0615C83.249 10.6904 82.9902 10.4023 82.6387 10.1973C82.2969 9.99219 81.8525 9.88965 81.3057 9.88965C80.8369 9.88965 80.4316 9.97266 80.0898 10.1387C79.748 10.2949 79.4844 10.5244 79.2988 10.8271C79.1133 11.1201 79.0205 11.4668 79.0205 11.8672H74.8018C74.8018 11.1934 74.958 10.5537 75.2705 9.94824C75.583 9.34277 76.0371 8.81055 76.6328 8.35156C77.2285 7.88281 77.9365 7.5166 78.7568 7.25293C79.5869 6.98926 80.5146 6.85742 81.54 6.85742C82.7705 6.85742 83.8643 7.0625 84.8213 7.47266C85.7783 7.88281 86.5303 8.49805 87.0771 9.31836C87.6338 10.1387 87.9121 11.1641 87.9121 12.3945V19.1768C87.9121 20.0459 87.9658 20.7588 88.0732 21.3154C88.1807 21.8623 88.3369 22.3408 88.542 22.751V23H84.2793C84.0742 22.5703 83.918 22.0332 83.8105 21.3887C83.7129 20.7344 83.6641 20.0801 83.6641 19.4258ZM84.2207 13.3467L84.25 15.7344H81.8916C81.335 15.7344 80.8516 15.7979 80.4414 15.9248C80.0312 16.0518 79.6943 16.2324 79.4307 16.4668C79.167 16.6914 78.9717 16.9551 78.8447 17.2578C78.7275 17.5605 78.6689 17.8926 78.6689 18.2539C78.6689 18.6152 78.752 18.9424 78.918 19.2354C79.084 19.5186 79.3232 19.7432 79.6357 19.9092C79.9482 20.0654 80.3145 20.1436 80.7344 20.1436C81.3691 20.1436 81.9209 20.0166 82.3896 19.7627C82.8584 19.5088 83.2197 19.1963 83.4736 18.8252C83.7373 18.4541 83.874 18.1025 83.8838 17.7705L84.9971 19.5576C84.8408 19.958 84.626 20.373 84.3525 20.8027C84.0889 21.2324 83.752 21.6377 83.3418 22.0186C82.9316 22.3896 82.4385 22.6973 81.8623 22.9414C81.2861 23.1758 80.6025 23.293 79.8115 23.293C78.8057 23.293 77.8926 23.0928 77.0723 22.6924C76.2617 22.2822 75.6172 21.7207 75.1387 21.0078C74.6699 20.2852 74.4355 19.4648 74.4355 18.5469C74.4355 17.7168 74.5918 16.9795 74.9043 16.335C75.2168 15.6904 75.6758 15.1484 76.2812 14.709C76.8965 14.2598 77.6631 13.9229 78.5811 13.6982C79.499 13.4639 80.5635 13.3467 81.7744 13.3467H84.2207ZM95.3828 10.4316V23H91.1494V7.15039H95.1191L95.3828 10.4316ZM94.7969 14.5186H93.625C93.625 13.415 93.7568 12.3994 94.0205 11.4717C94.2939 10.5342 94.6895 9.72363 95.207 9.04004C95.7344 8.34668 96.3838 7.80957 97.1553 7.42871C97.9268 7.04785 98.8203 6.85742 99.8359 6.85742C100.539 6.85742 101.184 6.96484 101.77 7.17969C102.355 7.38477 102.858 7.71191 103.278 8.16113C103.708 8.60059 104.04 9.17676 104.274 9.88965C104.509 10.5928 104.626 11.4375 104.626 12.4238V23H100.407V12.8926C100.407 12.1699 100.31 11.6133 100.114 11.2227C99.9189 10.832 99.6406 10.5586 99.2793 10.4023C98.9277 10.2461 98.5029 10.168 98.0049 10.168C97.458 10.168 96.9795 10.2803 96.5693 10.5049C96.1689 10.7295 95.8369 11.042 95.5732 11.4424C95.3096 11.833 95.1143 12.292 94.9873 12.8193C94.8604 13.3467 94.7969 13.9131 94.7969 14.5186ZM104.23 14.0352L102.722 14.2256C102.722 13.1904 102.849 12.2285 103.103 11.3398C103.366 10.4512 103.752 9.66992 104.26 8.99609C104.777 8.32227 105.417 7.7998 106.179 7.42871C106.94 7.04785 107.819 6.85742 108.815 6.85742C109.577 6.85742 110.271 6.96973 110.896 7.19434C111.521 7.40918 112.053 7.75586 112.492 8.23438C112.941 8.70312 113.283 9.31836 113.518 10.0801C113.762 10.8418 113.884 11.7744 113.884 12.8779V23H109.65V12.8779C109.65 12.1455 109.553 11.5889 109.357 11.208C109.172 10.8174 108.898 10.5488 108.537 10.4023C108.186 10.2461 107.766 10.168 107.277 10.168C106.77 10.168 106.325 10.2705 105.944 10.4756C105.563 10.6709 105.246 10.9443 104.992 11.2959C104.738 11.6475 104.548 12.0576 104.421 12.5264C104.294 12.9854 104.23 13.4883 104.23 14.0352ZM125.705 19.4258V12.3652C125.705 11.8574 125.622 11.4229 125.456 11.0615C125.29 10.6904 125.031 10.4023 124.68 10.1973C124.338 9.99219 123.894 9.88965 123.347 9.88965C122.878 9.88965 122.473 9.97266 122.131 10.1387C121.789 10.2949 121.525 10.5244 121.34 10.8271C121.154 11.1201 121.062 11.4668 121.062 11.8672H116.843C116.843 11.1934 116.999 10.5537 117.312 9.94824C117.624 9.34277 118.078 8.81055 118.674 8.35156C119.27 7.88281 119.978 7.5166 120.798 7.25293C121.628 6.98926 122.556 6.85742 123.581 6.85742C124.812 6.85742 125.905 7.0625 126.862 7.47266C127.819 7.88281 128.571 8.49805 129.118 9.31836C129.675 10.1387 129.953 11.1641 129.953 12.3945V19.1768C129.953 20.0459 130.007 20.7588 130.114 21.3154C130.222 21.8623 130.378 22.3408 130.583 22.751V23H126.32C126.115 22.5703 125.959 22.0332 125.852 21.3887C125.754 20.7344 125.705 20.0801 125.705 19.4258ZM126.262 13.3467L126.291 15.7344H123.933C123.376 15.7344 122.893 15.7979 122.482 15.9248C122.072 16.0518 121.735 16.2324 121.472 16.4668C121.208 16.6914 121.013 16.9551 120.886 17.2578C120.769 17.5605 120.71 17.8926 120.71 18.2539C120.71 18.6152 120.793 18.9424 120.959 19.2354C121.125 19.5186 121.364 19.7432 121.677 19.9092C121.989 20.0654 122.355 20.1436 122.775 20.1436C123.41 20.1436 123.962 20.0166 124.431 19.7627C124.899 19.5088 125.261 19.1963 125.515 18.8252C125.778 18.4541 125.915 18.1025 125.925 17.7705L127.038 19.5576C126.882 19.958 126.667 20.373 126.394 20.8027C126.13 21.2324 125.793 21.6377 125.383 22.0186C124.973 22.3896 124.479 22.6973 123.903 22.9414C123.327 23.1758 122.644 23.293 121.853 23.293C120.847 23.293 119.934 23.0928 119.113 22.6924C118.303 22.2822 117.658 21.7207 117.18 21.0078C116.711 20.2852 116.477 19.4648 116.477 18.5469C116.477 17.7168 116.633 16.9795 116.945 16.335C117.258 15.6904 117.717 15.1484 118.322 14.709C118.938 14.2598 119.704 13.9229 120.622 13.6982C121.54 13.4639 122.604 13.3467 123.815 13.3467H126.262Z" fill="#FFA011"/>
</svg>
