<svg width="135" height="23" viewBox="0 0 135 23" fill="none" xmlns="http://www.w3.org/2000/svg">
<path d="M0.0400001 22V0.999999H3.88V22H0.0400001ZM7.86016 22V0.399999H11.7002V13.15L16.9802 7.12H21.5402L15.4502 13.9L22.5302 22H17.7302L11.7002 14.53V22H7.86016ZM24.9109 22V0.399999H28.7509V13.15L34.0309 7.12H38.5909L32.5009 13.9L39.5809 22H34.7809L28.7509 14.53V22H24.9109ZM44.0317 4.81C43.3317 4.81 42.7517 4.6 42.2917 4.18C41.8517 3.76 41.6317 3.23 41.6317 2.59C41.6317 1.95 41.8517 1.43 42.2917 1.03C42.7517 0.609999 43.3317 0.399999 44.0317 0.399999C44.7317 0.399999 45.3017 0.609999 45.7417 1.03C46.2017 1.43 46.4317 1.95 46.4317 2.59C46.4317 3.23 46.2017 3.76 45.7417 4.18C45.3017 4.6 44.7317 4.81 44.0317 4.81ZM42.1117 22V7.12H45.9517V22H42.1117Z" fill="#450B7C"/>
<path d="M57.1982 22V0.999999H64.9082C66.5882 0.999999 67.9682 1.29 69.0482 1.87C70.1482 2.43 70.9682 3.2 71.5082 4.18C72.0482 5.14 72.3182 6.21 72.3182 7.39C72.3182 8.67 71.9782 9.84 71.2982 10.9C70.6382 11.96 69.5982 12.73 68.1782 13.21L72.5282 22H68.1182L64.2182 13.72H61.0382V22H57.1982ZM61.0382 10.9H64.6682C65.9482 10.9 66.8882 10.59 67.4882 9.97C68.0882 9.35 68.3882 8.53 68.3882 7.51C68.3882 6.51 68.0882 5.71 67.4882 5.11C66.9082 4.51 65.9582 4.21 64.6382 4.21H61.0382V10.9ZM80.373 22.36C79.093 22.36 78.043 22.16 77.223 21.76C76.403 21.34 75.793 20.79 75.393 20.11C74.993 19.43 74.793 18.68 74.793 17.86C74.793 16.48 75.333 15.36 76.413 14.5C77.493 13.64 79.113 13.21 81.273 13.21H85.053V12.85C85.053 11.83 84.763 11.08 84.183 10.6C83.603 10.12 82.883 9.88 82.023 9.88C81.243 9.88 80.563 10.07 79.983 10.45C79.403 10.81 79.043 11.35 78.903 12.07H75.153C75.253 10.99 75.613 10.05 76.233 9.25C76.873 8.45 77.693 7.84 78.693 7.42C79.693 6.98 80.813 6.76 82.053 6.76C84.173 6.76 85.843 7.29 87.063 8.35C88.283 9.41 88.893 10.91 88.893 12.85V22H85.623L85.263 19.6C84.823 20.4 84.203 21.06 83.403 21.58C82.623 22.1 81.613 22.36 80.373 22.36ZM81.243 19.36C82.343 19.36 83.193 19 83.793 18.28C84.413 17.56 84.803 16.67 84.963 15.61H81.693C80.673 15.61 79.943 15.8 79.503 16.18C79.063 16.54 78.843 16.99 78.843 17.53C78.843 18.11 79.063 18.56 79.503 18.88C79.943 19.2 80.523 19.36 81.243 19.36ZM92.5574 22V7.12H95.9474L96.2774 9.13C96.7574 8.41 97.3874 7.84 98.1674 7.42C98.9674 6.98 99.8874 6.76 100.927 6.76C103.227 6.76 104.857 7.65 105.817 9.43C106.357 8.61 107.077 7.96 107.977 7.48C108.897 7 109.897 6.76 110.977 6.76C112.917 6.76 114.407 7.34 115.447 8.5C116.487 9.66 117.007 11.36 117.007 13.6V22H113.167V13.96C113.167 12.68 112.917 11.7 112.417 11.02C111.937 10.34 111.187 10 110.167 10C109.127 10 108.287 10.38 107.647 11.14C107.027 11.9 106.717 12.96 106.717 14.32V22H102.877V13.96C102.877 12.68 102.627 11.7 102.127 11.02C101.627 10.34 100.857 10 99.8174 10C98.7974 10 97.9674 10.38 97.3274 11.14C96.7074 11.9 96.3974 12.96 96.3974 14.32V22H92.5574ZM125.783 22.36C124.503 22.36 123.453 22.16 122.633 21.76C121.813 21.34 121.203 20.79 120.803 20.11C120.403 19.43 120.203 18.68 120.203 17.86C120.203 16.48 120.743 15.36 121.823 14.5C122.903 13.64 124.523 13.21 126.683 13.21H130.463V12.85C130.463 11.83 130.173 11.08 129.593 10.6C129.013 10.12 128.293 9.88 127.433 9.88C126.653 9.88 125.973 10.07 125.393 10.45C124.813 10.81 124.453 11.35 124.313 12.07H120.563C120.663 10.99 121.023 10.05 121.643 9.25C122.283 8.45 123.103 7.84 124.103 7.42C125.103 6.98 126.223 6.76 127.463 6.76C129.583 6.76 131.253 7.29 132.473 8.35C133.693 9.41 134.303 10.91 134.303 12.85V22H131.033L130.673 19.6C130.233 20.4 129.613 21.06 128.813 21.58C128.033 22.1 127.023 22.36 125.783 22.36ZM126.653 19.36C127.753 19.36 128.603 19 129.203 18.28C129.823 17.56 130.213 16.67 130.373 15.61H127.103C126.083 15.61 125.353 15.8 124.913 16.18C124.473 16.54 124.253 16.99 124.253 17.53C124.253 18.11 124.473 18.56 124.913 18.88C125.353 19.2 125.933 19.36 126.653 19.36Z" fill="#FFA011"/>
</svg>
