<svg width="4347" height="761" viewBox="0 0 4347 761" fill="none" xmlns="http://www.w3.org/2000/svg">
<path d="M146.164 40.0625V751H0.167969V40.0625H146.164ZM415.207 0.511719V751H274.582V0.511719H415.207ZM748.215 222.68L518.723 484.398L395.676 608.91L344.406 507.348L442.062 383.324L579.27 222.68H748.215ZM602.219 751L445.969 506.859L543.137 421.898L764.328 751H602.219ZM949.387 0.511719V751H808.762V0.511719H949.387ZM1282.39 222.68L1052.9 484.398L929.855 608.91L878.586 507.348L976.242 383.324L1113.45 222.68H1282.39ZM1136.4 751L980.148 506.859L1077.32 421.898L1298.51 751H1136.4ZM1491.38 222.68V751H1350.27V222.68H1491.38ZM1341.48 84.9844C1341.48 64.4766 1348.64 47.5495 1362.96 34.2031C1377.28 20.8568 1396.49 14.1836 1420.58 14.1836C1444.34 14.1836 1463.38 20.8568 1477.71 34.2031C1492.36 47.5495 1499.68 64.4766 1499.68 84.9844C1499.68 105.492 1492.36 122.419 1477.71 135.766C1463.38 149.112 1444.34 155.785 1420.58 155.785C1396.49 155.785 1377.28 149.112 1362.96 135.766C1348.64 122.419 1341.48 105.492 1341.48 84.9844Z" fill="#563CC9"/>
<path d="M1865.4 40.0625H2130.54C2184.9 40.0625 2231.61 48.2005 2270.68 64.4766C2310.06 80.7526 2340.34 104.841 2361.5 136.742C2382.65 168.643 2393.23 207.868 2393.23 254.418C2393.23 292.504 2386.72 325.219 2373.7 352.562C2361.01 379.581 2342.94 402.204 2319.5 420.434C2296.39 438.337 2269.21 452.66 2237.96 463.402L2191.57 487.816H1961.11L1960.13 373.559H2131.52C2157.23 373.559 2178.55 369.001 2195.48 359.887C2212.41 350.772 2225.1 338.077 2233.57 321.801C2242.36 305.525 2246.75 286.645 2246.75 265.16C2246.75 242.374 2242.52 222.68 2234.05 206.078C2225.59 189.477 2212.73 176.781 2195.48 167.992C2178.23 159.203 2156.58 154.809 2130.54 154.809H2011.89V751H1865.4V40.0625ZM2262.86 751L2100.75 434.105L2255.54 433.129L2419.6 744.164V751H2262.86ZM2782.39 631.859V396.508C2782.39 379.581 2779.63 365.095 2774.09 353.051C2768.56 340.681 2759.93 331.078 2748.21 324.242C2736.82 317.406 2722.01 313.988 2703.78 313.988C2688.16 313.988 2674.65 316.755 2663.25 322.289C2651.86 327.497 2643.07 335.147 2636.89 345.238C2630.7 355.004 2627.61 366.56 2627.61 379.906H2486.98C2486.98 357.445 2492.19 336.124 2502.61 315.941C2513.03 295.759 2528.16 278.018 2548.02 262.719C2567.88 247.094 2591.48 234.887 2618.82 226.098C2646.49 217.309 2677.41 212.914 2711.59 212.914C2752.61 212.914 2789.07 219.75 2820.97 233.422C2852.87 247.094 2877.93 267.602 2896.16 294.945C2914.72 322.289 2924 356.469 2924 397.484V623.559C2924 652.53 2925.79 676.293 2929.37 694.848C2932.95 713.077 2938.16 729.027 2944.99 742.699V751H2802.9C2796.07 736.677 2790.86 718.773 2787.28 697.289C2784.02 675.479 2782.39 653.669 2782.39 631.859ZM2800.95 429.223L2801.93 508.812H2723.31C2704.76 508.812 2688.64 510.928 2674.97 515.16C2661.3 519.392 2650.07 525.414 2641.28 533.227C2632.49 540.714 2625.98 549.503 2621.75 559.594C2617.84 569.685 2615.89 580.753 2615.89 592.797C2615.89 604.841 2618.66 615.746 2624.19 625.512C2629.73 634.952 2637.7 642.439 2648.12 647.973C2658.53 653.181 2670.74 655.785 2684.74 655.785C2705.9 655.785 2724.29 651.553 2739.91 643.09C2755.54 634.626 2767.58 624.21 2776.05 611.84C2784.84 599.47 2789.39 587.751 2789.72 576.684L2826.83 636.254C2821.62 649.6 2814.46 663.435 2805.34 677.758C2796.55 692.081 2785.32 705.59 2771.65 718.285C2757.98 730.655 2741.54 740.909 2722.34 749.047C2703.13 756.859 2680.34 760.766 2653.98 760.766C2620.45 760.766 2590.01 754.092 2562.67 740.746C2535.65 727.074 2514.17 708.357 2498.21 684.594C2482.59 660.505 2474.78 633.161 2474.78 602.562C2474.78 574.893 2479.99 550.316 2490.4 528.832C2500.82 507.348 2516.12 489.281 2536.3 474.633C2556.81 459.659 2582.36 448.428 2612.96 440.941C2643.56 433.129 2679.04 429.223 2719.41 429.223H2800.95ZM3173.02 332.055V751H3031.91V222.68H3164.23L3173.02 332.055ZM3153.49 468.285H3114.43C3114.43 431.501 3118.82 397.647 3127.61 366.723C3136.72 335.473 3149.91 308.454 3167.16 285.668C3184.74 262.556 3206.39 244.652 3232.1 231.957C3257.82 219.262 3287.6 212.914 3321.46 212.914C3344.89 212.914 3366.38 216.495 3385.91 223.656C3405.44 230.492 3422.21 241.397 3436.2 256.371C3450.53 271.02 3461.59 290.225 3469.41 313.988C3477.22 337.426 3481.12 365.583 3481.12 398.461V751H3340.5V414.086C3340.5 389.997 3337.24 371.443 3330.73 358.422C3324.22 345.401 3314.95 336.286 3302.9 331.078C3291.18 325.87 3277.02 323.266 3260.42 323.266C3242.19 323.266 3226.24 327.009 3212.57 334.496C3199.22 341.983 3188.16 352.4 3179.37 365.746C3170.58 378.767 3164.07 394.066 3159.84 411.645C3155.6 429.223 3153.49 448.103 3153.49 468.285ZM3467.94 452.172L3417.65 458.52C3417.65 424.014 3421.88 391.951 3430.34 362.328C3439.13 332.706 3451.99 306.664 3468.92 284.203C3486.17 261.742 3507.49 244.327 3532.88 231.957C3558.27 219.262 3587.57 212.914 3620.77 212.914C3646.16 212.914 3669.28 216.658 3690.11 224.145C3710.94 231.306 3728.68 242.862 3743.33 258.812C3758.31 274.438 3769.7 294.945 3777.51 320.336C3785.65 345.727 3789.72 376.814 3789.72 413.598V751H3648.61V413.598C3648.61 389.184 3645.35 370.629 3638.84 357.934C3632.65 344.913 3623.54 335.961 3611.5 331.078C3599.78 325.87 3585.78 323.266 3569.5 323.266C3552.58 323.266 3537.77 326.684 3525.07 333.52C3512.38 340.03 3501.8 349.145 3493.33 360.863C3484.87 372.582 3478.52 386.254 3474.29 401.879C3470.06 417.178 3467.94 433.943 3467.94 452.172ZM4183.76 631.859V396.508C4183.76 379.581 4180.99 365.095 4175.46 353.051C4169.93 340.681 4161.3 331.078 4149.58 324.242C4138.19 317.406 4123.38 313.988 4105.15 313.988C4089.52 313.988 4076.01 316.755 4064.62 322.289C4053.23 327.497 4044.44 335.147 4038.25 345.238C4032.07 355.004 4028.98 366.56 4028.98 379.906H3888.35C3888.35 357.445 3893.56 336.124 3903.98 315.941C3914.39 295.759 3929.53 278.018 3949.39 262.719C3969.24 247.094 3992.84 234.887 4020.19 226.098C4047.86 217.309 4078.78 212.914 4112.96 212.914C4153.98 212.914 4190.43 219.75 4222.34 233.422C4254.24 247.094 4279.3 267.602 4297.53 294.945C4316.09 322.289 4325.36 356.469 4325.36 397.484V623.559C4325.36 652.53 4327.15 676.293 4330.73 694.848C4334.32 713.077 4339.52 729.027 4346.36 742.699V751H4204.27C4197.43 736.677 4192.23 718.773 4188.64 697.289C4185.39 675.479 4183.76 653.669 4183.76 631.859ZM4202.32 429.223L4203.29 508.812H4124.68C4106.12 508.812 4090.01 510.928 4076.34 515.16C4062.67 519.392 4051.44 525.414 4042.65 533.227C4033.86 540.714 4027.35 549.503 4023.12 559.594C4019.21 569.685 4017.26 580.753 4017.26 592.797C4017.26 604.841 4020.02 615.746 4025.56 625.512C4031.09 634.952 4039.07 642.439 4049.48 647.973C4059.9 653.181 4072.11 655.785 4086.11 655.785C4107.26 655.785 4125.66 651.553 4141.28 643.09C4156.91 634.626 4168.95 624.21 4177.41 611.84C4186.2 599.47 4190.76 587.751 4191.09 576.684L4228.2 636.254C4222.99 649.6 4215.83 663.435 4206.71 677.758C4197.92 692.081 4186.69 705.59 4173.02 718.285C4159.35 730.655 4142.91 740.909 4123.7 749.047C4104.5 756.859 4081.71 760.766 4055.34 760.766C4021.82 760.766 3991.38 754.092 3964.04 740.746C3937.02 727.074 3915.53 708.357 3899.58 684.594C3883.96 660.505 3876.14 633.161 3876.14 602.562C3876.14 574.893 3881.35 550.316 3891.77 528.832C3902.19 507.348 3917.49 489.281 3937.67 474.633C3958.18 459.659 3983.73 448.428 4014.33 440.941C4044.93 433.129 4080.41 429.223 4120.77 429.223H4202.32Z" fill="#FFA011"/>
</svg>
