<svg width="26" height="22" viewBox="0 0 26 22" fill="none" xmlns="http://www.w3.org/2000/svg">
<path d="M4.57715 0.671875V22H0.197266V0.671875H4.57715Z" fill="#450B7C"/>
<path d="M8.69336 0.671875H16.6475C18.2783 0.671875 19.6797 0.916016 20.8516 1.4043C22.0332 1.89258 22.9414 2.61523 23.5762 3.57227C24.2109 4.5293 24.5283 5.70605 24.5283 7.10254C24.5283 8.24512 24.333 9.22656 23.9424 10.0469C23.5615 10.8574 23.0195 11.5361 22.3164 12.083C21.623 12.6201 20.8076 13.0498 19.8701 13.3721L18.4785 14.1045H11.5645L11.5352 10.6768H16.6768C17.4482 10.6768 18.0879 10.54 18.5957 10.2666C19.1035 9.99316 19.4844 9.6123 19.7383 9.12402C20.002 8.63574 20.1338 8.06934 20.1338 7.4248C20.1338 6.74121 20.0068 6.15039 19.7529 5.65234C19.499 5.1543 19.1133 4.77344 18.5957 4.50977C18.0781 4.24609 17.4287 4.11426 16.6475 4.11426H13.0879V22H8.69336V0.671875ZM20.6172 22L15.7539 12.4932L20.3975 12.4639L25.3193 21.7949V22H20.6172Z" fill="#FFA011"/>
</svg>
