<svg width="24" height="21" viewBox="0 0 24 21" fill="none" xmlns="http://www.w3.org/2000/svg">
<path d="M0.0400001 21V-1.43051e-06H3.88V21H0.0400001Z" fill="#450B7C"/>
<path d="M7.95016 21V-1.43051e-06H15.6602C17.3402 -1.43051e-06 18.7202 0.289999 19.8002 0.87C20.9002 1.43 21.7202 2.2 22.2602 3.18C22.8002 4.14 23.0702 5.21 23.0702 6.39C23.0702 7.67 22.7302 8.84 22.0502 9.9C21.3902 10.96 20.3502 11.73 18.9302 12.21L23.2802 21H18.8702L14.9702 12.72H11.7902V21H7.95016ZM11.7902 9.9H15.4202C16.7002 9.9 17.6402 9.59 18.2402 8.97C18.8402 8.35 19.1402 7.53 19.1402 6.51C19.1402 5.51 18.8402 4.71 18.2402 4.11C17.6602 3.51 16.7102 3.21 15.3902 3.21H11.7902V9.9Z" fill="#FFA011"/>
</svg>
