<svg xmlns="http://www.w3.org/2000/svg" viewBox="0 0 270 330" width="270" height="330" preserveAspectRatio="xMidYMid meet" style="width: 100%; height: 100%; transform: translate3d(0px, 0px, 0px); content-visibility: visible;"><defs><clipPath id="__lottie_element_623"><rect width="270" height="330" x="0" y="0"></rect></clipPath><clipPath id="__lottie_element_625"><path d="M0,0 L810,0 L810,990 L0,990z"></path></clipPath></defs><g clip-path="url(#__lottie_element_623)"><g clip-path="url(#__lottie_element_625)" transform="matrix(0.5851899981498718,0,0,0.5851899981498718,-74.001953125,-248.66903686523438)" opacity="1" style="display: block;"><g transform="matrix(0,-0.7696899771690369,-0.7696899771690369,0,390.0089416503906,410.81365966796875)" opacity="1" style="display: block;"><g opacity="1" transform="matrix(1,0,0,1,-17.131999969482422,9.430999755859375)"><path stroke-linecap="butt" stroke-linejoin="miter" fill-opacity="0" stroke-miterlimit="4" stroke="rgb(66,79,156)" stroke-opacity="1" stroke-width="76" d=" M-169.33999633789062,0 C-169.33999633789062,0 -169.33999633789062,0 -169.33999633789062,0 C-169.33999633789062,-93.458740234375 -93.458740234375,-169.33999633789062 0,-169.33999633789062"></path></g></g><g transform="matrix(0.7696899771690369,0,0,-0.7696899771690369,396.43634033203125,431.2589416503906)" opacity="1" style="display: block;"><g opacity="1" transform="matrix(1,0,0,1,-17.131999969482422,9.430999755859375)"><path stroke-linecap="butt" stroke-linejoin="miter" fill-opacity="0" stroke-miterlimit="4" stroke="rgb(89,89,235)" stroke-opacity="1" stroke-width="76" d=" M-169.33999633789062,0 C-169.33999633789062,0 -169.33999633789062,0 -169.33999633789062,0 C-169.33999633789062,-93.458740234375 -93.458740234375,-169.33999633789062 0,-169.33999633789062"></path></g></g><g transform="matrix(0.7696899771690369,0,0,-0.7696899771690369,600.9363403320312,638.2589721679688)" opacity="1" style="display: block;"><g opacity="1" transform="matrix(1,0,0,1,-17.131999969482422,9.430999755859375)"><path stroke-linecap="butt" stroke-linejoin="miter" fill-opacity="0" stroke-miterlimit="4" stroke="rgb(191,61,194)" stroke-opacity="1" stroke-width="76" d=" M-169.33999633789062,0 C-169.33999633789062,0 -169.33999633789062,0 -169.33999633789062,0 C-169.33999633789062,-93.458740234375 -93.458740234375,-169.33999633789062 0,-169.33999633789062"></path></g></g><g transform="matrix(0,0.7696899771690369,0.7696899771690369,0,580.5599975585938,644.1233520507812)" opacity="1" style="display: block;"><g opacity="1" transform="matrix(1,0,0,1,-17.131999969482422,9.430999755859375)"><path stroke-linecap="butt" stroke-linejoin="miter" fill-opacity="0" stroke-miterlimit="4" stroke="rgb(26,217,158)" stroke-opacity="1" stroke-width="76" d=" M-169.33999633789062,0 C-169.33999633789062,0 -169.33999633789062,0 -169.33999633789062,0 C-169.33999633789062,-93.458740234375 -93.458740234375,-169.33999633789062 0,-169.33999633789062"></path></g></g></g></g></svg>