<svg xmlns="http://www.w3.org/2000/svg" viewBox="0 0 270 330" width="270" height="330" preserveAspectRatio="xMidYMid meet" style="width: 100%; height: 100%; transform: translate3d(0px, 0px, 0px); content-visibility: visible;"><defs><clipPath id="__lottie_element_587"><rect width="270" height="330" x="0" y="0"></rect></clipPath><clipPath id="__lottie_element_589"><path d="M0,0 L810,0 L810,990 L0,990z"></path></clipPath><clipPath id="__lottie_element_593"><path d="M0,0 L810,0 L810,990 L0,990z"></path></clipPath><clipPath id="__lottie_element_601"><path d="M0,0 L810,0 L810,990 L0,990z"></path></clipPath></defs><g clip-path="url(#__lottie_element_587)"><g clip-path="url(#__lottie_element_589)" transform="matrix(0.5723299980163574,0,0,0.5723299980163574,-103.79365539550781,-154.3033447265625)" opacity="1" style="display: block;"><g transform="matrix(0,-0.7696899771690369,-0.7696899771690369,0,188.00894165039062,256.81365966796875)" opacity="1" style="display: block;"><g opacity="1" transform="matrix(1,0,0,1,-17.131999969482422,9.430999755859375)"><path stroke-linecap="butt" stroke-linejoin="miter" fill-opacity="0" stroke-miterlimit="4" stroke="rgb(66,79,156)" stroke-opacity="1" stroke-width="76" d=" M-169.33999633789062,0 C-169.33999633789062,0 -169.33999633789062,0 -169.33999633789062,0 C-169.33999633789062,-93.458740234375 -93.458740234375,-169.33999633789062 0,-169.33999633789062"></path></g></g><g transform="matrix(0.7696899771690369,0,0,0.7696899771690369,405.31134033203125,472.7410583496094)" opacity="1" style="display: block;"><g opacity="1" transform="matrix(1,0,0,1,-17.131999969482422,9.430999755859375)"><path stroke-linecap="butt" stroke-linejoin="miter" fill-opacity="0" stroke-miterlimit="4" stroke="rgb(89,89,235)" stroke-opacity="1" stroke-width="76" d=" M-165.2899932861328,36.94499969482422 C-167.94200134277344,25.051000595092773 -169.33999633789062,12.687999725341797 -169.33999633789062,0 C-169.33999633789062,-93.458740234375 -93.458740234375,-169.33999633789062 0,-169.33999633789062"></path></g></g><g transform="matrix(0,-0.7696899771690369,0.7696899771690369,0,384.7410583496094,466.31365966796875)" opacity="1" style="display: block;"><g opacity="1" transform="matrix(1,0,0,1,-17.131999969482422,9.430999755859375)"><path stroke-linecap="butt" stroke-linejoin="miter" fill-opacity="0" stroke-miterlimit="4" stroke="rgb(191,61,194)" stroke-opacity="1" stroke-width="76" d=" M-169.33999633789062,0 C-169.33999633789062,0 -169.33999633789062,0 -169.33999633789062,0 C-169.33999633789062,-93.458740234375 -93.458740234375,-169.33999633789062 0,-169.33999633789062"></path></g></g><g transform="matrix(0,0.7696899771690369,-0.7696899771690369,0,399.3839416503906,492.93634033203125)" opacity="1" style="display: block;"><g opacity="1" transform="matrix(1,0,0,1,-17.131999969482422,9.430999755859375)"><path stroke-linecap="butt" stroke-linejoin="miter" fill-opacity="0" stroke-miterlimit="4" stroke="rgb(255,214,48)" stroke-opacity="1" stroke-width="76" d=" M-169.33999633789062,0 C-169.33999633789062,0 -169.33999633789062,0 -169.33999633789062,0 C-169.33999633789062,-93.458740234375 -93.458740234375,-169.33999633789062 0,-169.33999633789062"></path></g></g><g transform="matrix(0,0.7696899771690369,0.7696899771690369,0,645.4910278320312,493.18634033203125)" opacity="1" style="display: block;"><g opacity="1" transform="matrix(1,0,0,1,-17.131999969482422,9.430999755859375)"><path stroke-linecap="butt" stroke-linejoin="miter" fill-opacity="0" stroke-miterlimit="4" stroke="rgb(66,79,156)" stroke-opacity="1" stroke-width="76" d=" M-169.33999633789062,0 C-169.33999633789062,0 -169.33999633789062,0 -169.33999633789062,0 C-169.33999633789062,-93.458740234375 -93.458740234375,-169.33999633789062 0,-169.33999633789062"></path></g></g><g clip-path="url(#__lottie_element_601)" transform="matrix(1,0,0,1,0,0)" opacity="1" style="display: none;"><g transform="matrix(0.9014599919319153,0,0,0.9014599919319153,418.0179443359375,374.7058410644531)" opacity="1" style="display: block;"><g opacity="1" transform="matrix(1,0,0,1,-29.481000900268555,192.5189971923828)"><path fill="rgb(26,217,158)" fill-opacity="1" d=" M0,-35.51900100708008 C19.602935791015625,-35.51900100708008 35.51900100708008,-19.602935791015625 35.51900100708008,0 C35.51900100708008,19.602935791015625 19.602935791015625,35.51900100708008 0,35.51900100708008 C-19.602935791015625,35.51900100708008 -35.51900100708008,19.602935791015625 -35.51900100708008,0 C-35.51900100708008,-19.602935791015625 -19.602935791015625,-35.51900100708008 0,-35.51900100708008z"></path></g></g></g><g clip-path="url(#__lottie_element_593)" style="display: block;" transform="matrix(1,0,0,1,0,0)" opacity="1"><g transform="matrix(0.9014599919319153,0,0,0.9014599919319153,418.0179443359375,374.7058410644531)" opacity="1" style="display: block;"><g opacity="1" transform="matrix(1,0,0,1,-29.481000900268555,192.5189971923828)"><path fill="rgb(26,217,158)" fill-opacity="1" d=" M0,-35.51900100708008 C19.602935791015625,-35.51900100708008 35.51900100708008,-19.602935791015625 35.51900100708008,0 C35.51900100708008,19.602935791015625 19.602935791015625,35.51900100708008 0,35.51900100708008 C-19.602935791015625,35.51900100708008 -35.51900100708008,19.602935791015625 -35.51900100708008,0 C-35.51900100708008,-19.602935791015625 -19.602935791015625,-35.51900100708008 0,-35.51900100708008z"></path></g></g></g></g></g></svg>