<svg width="90" height="90" viewBox="0 0 90 90" fill="none" xmlns="http://www.w3.org/2000/svg">
<rect width="90" height="90" fill="#FFF9E6"/>
<g clip-path="url(#clip0_78_120)">
<path d="M57.818 22.916H50.0357C48.2205 22.916 46.7439 24.3926 46.7439 26.2075V33.9902C46.7439 35.805 48.2205 37.2816 50.0357 37.2816H57.818C59.6329 37.2816 61.1095 35.805 61.1095 33.9902V26.2075C61.1098 24.3926 59.6332 22.916 57.818 22.916ZM58.5903 33.9902C58.5903 34.4157 58.2439 34.7621 57.818 34.7621H50.0357C49.6099 34.7621 49.2638 34.4157 49.2638 33.9902V26.2075C49.2638 25.782 49.6099 25.4356 50.0357 25.4356H57.818C58.2439 25.4356 58.5903 25.782 58.5903 26.2075V33.9902Z" fill="#FDC206"/>
<path d="M51.7897 40.4268C51.1851 40.4268 50.6152 40.5767 50.1149 40.8415C49.4703 39.8756 48.3709 39.2385 47.1253 39.2385C46.4819 39.2385 45.8776 39.4085 45.3547 39.706C44.7002 38.8173 43.6468 38.2396 42.4608 38.2396C42.0875 38.2396 41.7273 38.2967 41.3884 38.403V37.2816H41.6876C43.5028 37.2816 44.9794 35.805 44.9794 33.9898V26.2075C44.9794 24.3926 43.5028 22.916 41.6876 22.916H33.9052C32.0904 22.916 30.6138 24.3926 30.6138 26.2075V33.9902C30.6138 35.805 32.0904 37.2816 33.9052 37.2816H34.2048V45.0856C34.0099 44.8904 33.7911 44.7162 33.5509 44.567C32.777 44.0864 31.8696 43.919 30.9799 44.0903C30.0229 44.1287 29.1644 44.5463 28.6067 45.2493C28.0208 45.9878 27.8174 46.9779 28.048 47.966L29.7037 55.0513C30.6479 60.9627 35.2592 65.3853 35.4557 65.5713C35.6896 65.7927 35.9996 65.9161 36.3218 65.9161H50.4909C50.9151 65.9161 51.3104 65.7025 51.5436 65.3482C54.053 61.5309 55.38 57.0987 55.3804 52.5307L55.3817 44.0188C55.3817 44.0188 55.3817 44.0188 55.3817 44.0184C55.3817 42.0379 53.7702 40.4268 51.7897 40.4268ZM36.8509 63.3966C35.8356 62.3166 32.8436 58.8292 32.1852 54.6149C32.1803 54.5838 32.1744 54.5529 32.1672 54.5227L30.5012 47.3929C30.4458 47.1547 30.4737 46.9494 30.5803 46.8152C30.6866 46.681 30.869 46.6108 31.1124 46.5875C31.2348 46.576 31.2856 46.5616 31.3992 46.5547C31.6849 46.5373 31.9779 46.556 32.2213 46.7073C32.4647 46.8585 32.6343 47.0954 32.6996 47.3742L34.1365 53.5241C34.2566 54.0375 34.6837 54.422 35.2067 54.4876L35.3077 54.5001C35.6663 54.5451 36.0268 54.4338 36.2978 54.1947C36.5688 53.9555 36.724 53.6114 36.724 53.2502V33.2287C36.724 32.6372 37.2049 32.1563 37.7964 32.1563C38.3876 32.1563 38.8689 32.6372 38.8689 33.2287V45.042C38.8689 45.7375 39.4328 46.3018 40.1286 46.3018C40.8245 46.3018 41.3884 45.7375 41.3884 45.042V41.8316C41.3884 41.2401 41.8693 40.7591 42.4608 40.7591C43.052 40.7591 43.5333 41.2401 43.5333 41.8316V45.1854C43.5333 45.8812 44.0972 46.4451 44.7931 46.4451C45.4889 46.4451 46.0528 45.8812 46.0528 45.1854V42.8305C46.0528 42.2393 46.5341 41.7581 47.1253 41.7581C47.7168 41.7581 48.1977 42.2393 48.1977 42.8305V46.0652C48.1977 46.7607 48.7617 47.325 49.4575 47.325C50.1533 47.325 50.7172 46.7607 50.7172 46.0652V44.0188C50.7172 43.4273 51.1985 42.946 51.7897 42.946C52.3812 42.946 52.8621 43.4273 52.8621 44.0184L52.8608 52.5304C52.8605 56.3809 51.8035 60.1231 49.7983 63.3966H36.8509ZM33.1333 33.9902V26.2075C33.1333 25.782 33.4797 25.4356 33.9052 25.4356H41.6876C42.1134 25.4356 42.4599 25.782 42.4599 26.2075V33.9902C42.4599 34.4157 42.1134 34.7621 41.6876 34.7621H41.3884V33.2284C41.3884 31.2479 39.7769 29.6364 37.7964 29.6364C35.8159 29.6364 34.2044 31.2479 34.2044 33.2284V34.7621H33.9052C33.4797 34.7621 33.1333 34.4157 33.1333 33.9902Z" fill="#FDC206"/>
</g>
<defs>
<clipPath id="clip0_78_120">
<rect width="43" height="43" fill="white" transform="translate(23 23)"/>
</clipPath>
</defs>
</svg>
