<svg width="90" height="90" viewBox="0 0 90 90" fill="none" xmlns="http://www.w3.org/2000/svg">
<rect width="90" height="90" fill="#E9F0F9"/>
<g clip-path="url(#clip0_78_125)">
<path d="M26.8503 55.5528C26.3773 55.5528 25.9186 55.3037 25.6732 54.8612C23.9263 51.7079 23 48.1245 23 44.5C23 32.6445 32.6445 23 44.5 23C47.9561 23 51.3836 23.8421 54.4133 25.4331C55.0708 25.7789 55.3235 26.5905 54.9777 27.248C54.6355 27.9056 53.8238 28.16 53.1627 27.8124C50.5164 26.4221 47.5225 25.6875 44.5 25.6875C34.1263 25.6875 25.6875 34.1263 25.6875 44.5C25.6875 47.6695 26.4955 50.8013 28.0256 53.5587C28.384 54.2072 28.1493 55.026 27.5025 55.3862C27.2946 55.499 27.0707 55.5528 26.8503 55.5528Z" fill="#316AFF"/>
<path d="M44.5 65.9999C40.5171 65.9999 36.631 64.8998 33.2626 62.8197C32.6302 62.4309 32.4349 61.6014 32.8237 60.9707C33.2142 60.3418 34.0438 60.1429 34.6727 60.5335C37.6182 62.3503 41.017 63.3124 44.5 63.3124C54.8737 63.3124 63.3125 54.8737 63.3125 44.4999C63.3125 41.0115 62.3521 37.6199 60.5336 34.6923C60.143 34.0617 60.3383 33.2339 60.9672 32.8415C61.5978 32.4474 62.4256 32.6445 62.8162 33.2751C64.8999 36.6273 66 40.5099 66 44.4999C66 56.3554 56.3554 65.9999 44.5 65.9999Z" fill="#316AFF"/>
<path d="M39.5728 43.1564C38.8311 43.1564 38.2291 42.5544 38.2291 41.8127C38.2291 40.8255 37.4264 40.021 36.4374 40.021C35.4484 40.021 34.6458 40.8255 34.6458 41.8127C34.6458 42.5544 34.0438 43.1564 33.302 43.1564C32.5603 43.1564 31.9583 42.5544 31.9583 41.8127C31.9583 39.3437 33.9667 37.3335 36.4374 37.3335C38.9081 37.3335 40.9166 39.3437 40.9166 41.8127C40.9166 42.5544 40.3146 43.1564 39.5728 43.1564Z" fill="#316AFF"/>
<path d="M55.6978 43.1564C54.9561 43.1564 54.3541 42.5544 54.3541 41.8127C54.3541 40.8255 53.5514 40.021 52.5624 40.021C51.5734 40.021 50.7708 40.8255 50.7708 41.8127C50.7708 42.5544 50.1688 43.1564 49.427 43.1564C48.6853 43.1564 48.0833 42.5544 48.0833 41.8127C48.0833 39.3437 50.0917 37.3335 52.5624 37.3335C55.0331 37.3335 57.0416 39.3437 57.0416 41.8127C57.0416 42.5544 56.4396 43.1564 55.6978 43.1564Z" fill="#316AFF"/>
<path d="M44.5 55.2498C40.587 55.2498 36.9105 53.7269 34.1442 50.9587C33.6192 50.4338 33.6192 49.5827 34.1442 49.0578C34.6692 48.5328 35.5202 48.5328 36.0452 49.0578C38.3027 51.3189 41.3055 52.5623 44.5 52.5623C47.6946 52.5623 50.6974 51.3189 52.9567 49.0596C53.4817 48.5346 54.3327 48.5346 54.8577 49.0596C55.3826 49.5845 55.3826 50.4356 54.8577 50.9605C52.0895 53.7269 48.413 55.2498 44.5 55.2498Z" fill="#316AFF"/>
<path d="M58.8334 37.3979C58.5647 37.3979 58.2959 37.3173 58.063 37.156C56.997 36.4089 51.6667 32.5084 51.6667 28.9125C51.6667 26.6049 53.6322 24.729 56.0474 24.729C57.0847 24.729 58.063 25.0784 58.8334 25.6804C59.6038 25.0784 60.5821 24.729 61.6195 24.729C64.0346 24.7272 66.0001 26.6049 66.0001 28.9125C66.0001 32.5084 60.6699 36.4107 59.6038 37.156C59.3709 37.3173 59.1022 37.3979 58.8334 37.3979ZM56.0474 27.4147C55.1139 27.4147 54.3542 28.0866 54.3542 28.9108C54.3542 30.3441 56.8035 32.8112 58.8334 34.3843C60.8992 32.7897 63.3126 30.3602 63.3126 28.9108C63.3126 28.0866 62.5529 27.4147 61.6195 27.4147C60.9279 27.4147 60.3133 27.7784 60.0535 28.341C59.6128 29.2906 58.0558 29.2906 57.6151 28.341C57.3535 27.7784 56.739 27.4147 56.0474 27.4147Z" fill="#316AFF"/>
<path d="M30.1667 66.0644C29.8979 66.0644 29.6292 65.9838 29.3963 65.8225C28.3302 65.0754 23 61.1749 23 57.579C23 55.2714 24.9655 53.3955 27.3806 53.3955C28.418 53.3955 29.3963 53.7449 30.1667 54.3469C30.9371 53.7449 31.9153 53.3955 32.9527 53.3955C35.3679 53.3937 37.3333 55.2714 37.3333 57.579C37.3333 61.1749 32.0031 65.0772 30.9371 65.8225C30.7042 65.9838 30.4354 66.0644 30.1667 66.0644ZM27.3806 56.0812C26.4472 56.0812 25.6875 56.7531 25.6875 57.5773C25.6875 59.0106 28.1367 61.4777 30.1667 63.0508C32.2325 61.4562 34.6458 59.0267 34.6458 57.5773C34.6458 56.7531 33.8862 56.0812 32.9527 56.0812C32.2611 56.0812 31.6466 56.4449 31.3868 57.0075C30.946 57.9571 29.3891 57.9571 28.9483 57.0075C28.6867 56.4449 28.0722 56.0812 27.3806 56.0812Z" fill="#316AFF"/>
</g>
<defs>
<clipPath id="clip0_78_125">
<rect width="43" height="43" fill="white" transform="translate(23 23)"/>
</clipPath>
</defs>
</svg>
