<svg width="90" height="90" viewBox="0 0 90 90" fill="none" xmlns="http://www.w3.org/2000/svg">
<rect width="90" height="90" fill="#F4F0F1"/>
<g clip-path="url(#clip0_78_105)">
<path d="M54.5412 45.078C53.6998 44.6781 52.8413 44.3335 51.9678 44.0449C54.7969 41.9214 56.6303 38.54 56.6303 34.7385C56.6303 28.3257 51.4131 23.1084 45.0003 23.1084C38.5874 23.1084 33.3702 28.3257 33.3702 34.7385C33.3702 38.5442 35.2077 41.9289 38.0421 44.052C35.4452 44.907 33.0085 46.2374 30.8757 47.9916C26.9649 51.2084 24.2458 55.6953 23.2194 60.6259C22.8977 62.1708 23.2831 63.7576 24.2766 64.9793C25.2652 66.195 26.7312 66.8922 28.2985 66.8922H49.3615C50.3061 66.8922 51.0718 66.1265 51.0718 65.1819C51.0718 64.2373 50.3061 63.4716 49.3615 63.4716H28.2985C27.5684 63.4716 27.1279 63.064 26.9304 62.8212C26.5893 62.4017 26.4572 61.8557 26.5681 61.323C28.343 52.7976 35.8629 46.5698 44.5469 46.3598C44.6973 46.3656 44.8484 46.3685 45.0003 46.3685C45.1536 46.3685 45.3062 46.3655 45.4581 46.3596C48.1193 46.4221 50.6788 47.0294 53.0727 48.1674C53.9259 48.5728 54.9461 48.2101 55.3516 47.3569C55.7571 46.5038 55.3944 45.4835 54.5412 45.078ZM45.4174 42.9374C45.2786 42.9349 45.1396 42.9336 45.0003 42.9336C44.8622 42.9336 44.7242 42.935 44.5864 42.9376C40.2512 42.7213 36.7908 39.1264 36.7908 34.7385C36.7908 30.2117 40.4735 26.529 45.0003 26.529C49.527 26.529 53.2097 30.2117 53.2097 34.7385C53.2097 39.1253 49.7511 42.7195 45.4174 42.9374Z" fill="#ED5031"/>
<path d="M65.1819 57.0582H60.4785V52.3548C60.4785 51.4102 59.7128 50.6445 58.7682 50.6445C57.8236 50.6445 57.0579 51.4102 57.0579 52.3548V57.0582H52.3546C51.41 57.0582 50.6443 57.8239 50.6443 58.7685C50.6443 59.7131 51.41 60.4788 52.3546 60.4788H57.0579V65.1821C57.0579 66.1267 57.8236 66.8924 58.7682 66.8924C59.7128 66.8924 60.4785 66.1267 60.4785 65.1821V60.4788H65.1819C66.1265 60.4788 66.8922 59.7131 66.8922 58.7685C66.8922 57.8239 66.1265 57.0582 65.1819 57.0582Z" fill="#ED5031"/>
</g>
<defs>
<clipPath id="clip0_78_105">
<rect width="43.7838" height="43.7838" fill="white" transform="translate(23.1084 23.1084)"/>
</clipPath>
</defs>
</svg>
