<svg width="99" height="56" viewBox="0 0 99 56" fill="none" xmlns="http://www.w3.org/2000/svg">
<path fill-rule="evenodd" clip-rule="evenodd" d="M89.6639 21.9854C89.6458 21.602 89.6494 21.2287 89.6675 20.8783C89.7292 19.8246 90.7086 19.8283 90.7847 19.8297C90.9443 19.8333 91.6553 19.8783 91.8258 20.6999C91.8367 20.7489 91.8621 21.1036 91.8693 21.2403C91.8838 21.532 91.8911 21.8185 91.8512 22.1062C91.8874 22.5941 91.9672 23.0961 92.1196 23.5683C92.3409 24.2655 92.7 24.909 93.3492 25.2518C94.51 25.8684 96.037 25.8434 97.3139 26.0001C97.8471 26.0654 98.2533 26.5101 98.2715 27.0469C98.286 27.5841 97.9088 28.0527 97.3792 28.1503C95.7832 28.4456 93.9477 29.8969 92.7797 31.0656C92.4206 31.4247 92.018 32.28 91.5682 32.8277C91.2055 33.2666 90.8029 33.5608 90.422 33.6776C90.2733 33.7229 89.4499 33.8883 89.0799 33.0359C88.9783 32.7965 88.6193 31.5429 88.5866 31.4C88.3907 30.581 88.1114 29.8493 87.5637 29.1979C87.0886 28.6331 86.5118 28.1398 85.819 27.8663C85.5397 27.756 85.2495 27.6722 84.9593 27.5859C84.8577 27.5736 84.5712 27.5373 84.4696 27.5029C84.2629 27.4339 84.1105 27.3258 84.0017 27.2181C83.7949 27.0143 83.6897 26.7709 83.6716 26.4937C83.6571 26.3109 83.6825 26.094 83.8131 25.8535C83.911 25.6827 84.1323 25.4255 84.5313 25.2586C84.9484 25.0842 85.8444 24.9184 86.004 24.8752C87.1139 24.5764 88.2021 24.1219 89.0545 23.334C89.4789 22.9401 89.5768 22.5153 89.6639 21.9854ZM90.3749 25.07C90.8029 25.9573 91.4413 26.7041 92.33 27.1746C92.6963 27.3701 93.0953 27.5185 93.5088 27.6338C92.6564 28.2272 91.8657 28.9019 91.2381 29.5272C91.035 29.7307 90.8138 30.0601 90.578 30.4217C90.3023 29.4561 89.8961 28.5889 89.2286 27.7952C88.8333 27.3273 88.3871 26.8996 87.8901 26.5431C88.7897 26.1869 89.6422 25.7103 90.3749 25.07Z" fill="#35312B"/>
<path fill-rule="evenodd" clip-rule="evenodd" d="M66.9896 52.8071C75.2454 53.0066 83.6825 52.6039 91.5755 55.426C92.1413 55.6291 92.7652 55.3317 92.9683 54.7694C93.1715 54.2036 92.874 53.5797 92.3082 53.3765C84.1939 50.4747 75.5283 50.8338 67.0441 50.6307C66.4419 50.6162 65.945 51.0914 65.9305 51.6899C65.916 52.292 66.3911 52.7889 66.9896 52.8071Z" fill="#35312B"/>
<path fill-rule="evenodd" clip-rule="evenodd" d="M66.3764 40.7476C68.9336 38.3953 71.723 36.6313 75.0964 35.7579C75.6767 35.6073 76.025 35.0132 75.8762 34.4317C75.7239 33.8503 75.1327 33.5006 74.5487 33.6512C70.8198 34.6164 67.7293 36.5461 64.9037 39.1454C64.4611 39.552 64.4321 40.2408 64.8384 40.683C65.2447 41.1252 65.9338 41.1542 66.3764 40.7476Z" fill="#35312B"/>
<path fill-rule="evenodd" clip-rule="evenodd" d="M59.2527 14.7572C60.4243 10.7472 62.7277 7.61001 66.2571 5.34478C66.7613 5.0205 66.9099 4.34654 66.5835 3.84126C66.2606 3.33562 65.586 3.18872 65.0818 3.51336C61.0917 6.07313 58.4874 9.6159 57.1634 14.1475C56.9965 14.7238 57.3266 15.3285 57.9034 15.4968C58.4801 15.6651 59.0859 15.3336 59.2527 14.7572Z" fill="#35312B"/>
<path fill-rule="evenodd" clip-rule="evenodd" d="M18.1118 9.18078C17.4298 9.99112 16.8204 10.8617 16.2981 11.7866C15.9934 12.3202 15.4566 13.5629 15.5473 14.4628C15.6162 15.1371 15.9354 15.6856 16.5738 16.0091C17.5931 16.5271 18.4092 16.4636 19.0367 16.1506C19.6389 15.851 20.1176 15.267 20.4151 14.4781C20.9447 13.0696 20.883 10.9404 20.6146 9.65777C21.3401 8.91817 22.1344 8.24567 22.9796 7.64572C29.4797 3.03799 39.0159 4.75949 46.3539 11.6491C48.9256 14.0627 50.1481 19.1369 50.7901 24.6058C51.8021 33.1872 51.2254 42.7716 51.1456 45.5794C51.1274 46.3183 51.2072 46.7565 51.2435 46.8439C51.4466 47.3267 51.8094 47.4537 52.0597 47.5008C52.4115 47.5661 52.6908 47.4972 52.9193 47.3775C53.224 47.2179 53.4779 46.9379 53.594 46.5019C53.652 46.2792 53.6701 45.9697 53.6629 45.6393C53.6556 45.4438 53.6085 45.2305 53.6484 45.0905C53.9313 44.1064 54.2723 43.1448 54.6023 42.1771C55.7123 38.9216 57.1524 35.871 58.7447 32.8238C63.8193 23.1353 68.7162 12.8951 77.0336 5.51361C77.4834 5.11497 77.5269 4.42688 77.1279 3.97746C76.7289 3.5284 76.0397 3.48741 75.5899 3.88605C67.073 11.4431 62.0093 21.8951 56.8187 31.8146C55.6108 34.1194 54.4935 36.4275 53.5323 38.8189C53.6194 33.4197 53.4888 26.1031 52.2882 20.0644C51.4358 15.7581 50.0102 12.0931 47.8447 10.0626C39.6579 2.37638 28.9719 0.729579 21.7209 5.87016C21.0064 6.3758 20.3281 6.92789 19.686 7.52349C15.8338 0.796337 7.77036 -1.87262 0.635468 1.38359C0.0913732 1.63315 -0.151649 2.27916 0.0986348 2.82543C0.348918 3.3717 0.994566 3.6129 1.53866 3.36334C7.82839 0.493439 14.9524 3.02493 18.1118 9.18078ZM18.6704 12.071C18.5035 12.3282 18.3439 12.5908 18.1916 12.8588C18.0828 13.0467 17.9195 13.3739 17.8071 13.7236C17.7708 13.8451 17.7418 14.0363 17.7273 14.1531C17.8615 14.2169 17.9703 14.2503 18.0682 14.202C18.2278 14.1219 18.2967 13.922 18.3765 13.7105C18.5543 13.2393 18.645 12.6528 18.6704 12.071Z" fill="#35312B"/>
</svg>
