<svg width="13" height="13" viewBox="0 0 13 13" fill="none" xmlns="http://www.w3.org/2000/svg">
<g clip-path="url(#clip0_173_273)">
<path d="M4.3503 4.15919L6.1248 0.6435C6.15888 0.572775 6.21213 0.51304 6.27849 0.471095C6.34486 0.429151 6.42167 0.406683 6.50017 0.40625C6.64886 0.40625 6.79755 0.485063 6.87799 0.6435L8.65249 4.15919L12.6321 4.72469C12.7313 4.74028 12.8221 4.78961 12.8891 4.86436C12.9562 4.93911 12.9954 5.0347 13.0002 5.135C13.0058 5.20178 12.9964 5.26897 12.9725 5.33157C12.9485 5.39418 12.9108 5.45058 12.862 5.49656L9.99961 8.22331L10.674 12.0664C10.7374 12.4264 10.3815 12.7083 10.0679 12.5474L6.50017 10.7144L2.93411 12.5474C2.89681 12.5668 2.85683 12.5805 2.81549 12.5881C2.53761 12.6368 2.27274 12.3817 2.32799 12.0664L3.00236 8.22331L0.140735 5.49656C0.0962475 5.45447 0.0608857 5.40369 0.0368453 5.34736C0.0128049 5.29103 0.000599077 5.23037 0.000985457 5.16912C0.00102772 5.08254 0.0249228 4.99764 0.070048 4.92375C0.102059 4.87018 0.145691 4.82448 0.197722 4.79003C0.249754 4.75558 0.308858 4.73325 0.370673 4.72469L4.3503 4.15919V4.15919ZM6.50017 9.77194C6.56576 9.77167 6.63043 9.78728 6.68867 9.81744L9.68355 11.3563L9.11967 8.14125C9.10636 8.06731 9.1114 7.99123 9.13435 7.91969C9.1573 7.84815 9.19746 7.78334 9.2513 7.73094L11.6132 5.48031L8.32099 5.01231C8.25281 5.00202 8.18815 4.97535 8.13254 4.9346C8.07693 4.89384 8.03202 4.84022 8.00167 4.77831L6.50099 1.80619L6.50017 1.80863V9.77113V9.77194Z" fill="#FDC206"/>
</g>
<defs>
<clipPath id="clip0_173_273">
<rect width="13" height="13" fill="white"/>
</clipPath>
</defs>
</svg>
