<svg width="79" height="87" viewBox="0 0 79 87" fill="none" xmlns="http://www.w3.org/2000/svg">
<mask id="mask0_192_67" style="mask-type:alpha" maskUnits="userSpaceOnUse" x="0" y="0" width="79" height="87">
<path d="M63.1323 55.0839C63.1323 72.5174 48.9997 86.65 31.5662 86.65C14.1326 86.65 0 72.5174 0 55.0839C0 37.6504 55.4879 1.37473e-06 72.9214 1.37473e-06C90.3549 1.37473e-06 63.1323 37.6504 63.1323 55.0839Z" fill="#FFCB3C"/>
</mask>
<g mask="url(#mask0_192_67)">
<path fill-rule="evenodd" clip-rule="evenodd" d="M27.8061 50.8574C25.8549 50.0387 23.6503 49.8757 21.2203 50.5869C12.9226 53.0151 9.52482 59.4812 9.07039 67.1839C8.43384 78.0105 13.835 91.3381 18.6724 97.9603C19.2378 98.7339 20.3236 98.9021 21.0972 98.3384C21.869 97.773 22.039 96.6872 21.4736 95.9136C16.9882 89.7736 11.9427 77.4277 12.5341 67.3886C12.8983 61.1792 15.507 55.8735 22.1951 53.9153C23.6417 53.4921 24.9581 53.5511 26.1427 53.9673C25.7577 54.7392 25.3899 55.5127 25.0413 56.2863C23.6485 59.384 21.5672 67.9853 22.3443 74.3091C22.96 79.3131 25.324 82.9016 30.2014 82.7698C32.9938 82.6953 35.0545 81.0076 36.2911 78.2412C37.8157 74.8295 38.0239 69.6104 36.952 64.6065C36.0622 60.4455 34.2964 56.4528 31.8196 53.7678C31.4727 53.3915 31.112 53.0394 30.7391 52.7133C38.8702 38.2982 53.5456 24.9219 68.6129 19.2242C69.5079 18.886 69.9588 17.8852 69.6206 16.9885C69.2823 16.0935 68.2799 15.6426 67.3849 15.9808C51.6689 21.9231 36.3501 35.8317 27.8061 50.8574ZM29.0567 55.8995C28.7618 56.5014 28.4773 57.1049 28.2067 57.7085C26.9562 60.4889 25.0899 68.209 25.7872 73.8859C26.1566 76.89 27.1817 79.3807 30.1095 79.3026C31.5456 79.2645 32.4891 78.2481 33.1239 76.8258C33.9669 74.9404 34.267 72.3839 34.1335 69.6625C33.9236 65.4408 32.6488 60.8202 30.4044 57.5525C29.9898 56.9489 29.5406 56.3921 29.0567 55.8995Z" fill="#316AFF"/>
<path fill-rule="evenodd" clip-rule="evenodd" d="M56.9988 40.9187C58.3517 33.0286 63.5257 24.6337 69.0846 18.8163C69.7455 18.1243 69.7212 17.0264 69.0292 16.3638C68.3371 15.703 67.2374 15.7273 66.5766 16.4193C60.5701 22.7068 55.0406 31.8075 53.5802 40.3324C53.4189 41.2759 54.0538 42.1727 54.9973 42.334C55.9409 42.4953 56.8375 41.8622 56.9988 40.9187Z" fill="#316AFF"/>
<path fill-rule="evenodd" clip-rule="evenodd" d="M66.7262 16.0881C61.0111 19.3506 52.2451 19.7773 45.8554 18.1226C44.9274 17.8832 43.9804 18.4418 43.7411 19.368C43.5017 20.2942 44.0585 21.2412 44.9864 21.4823C52.1706 23.3399 62.0206 22.7692 68.4468 19.1008C69.2776 18.6273 69.5673 17.5658 69.092 16.735C68.6168 15.9042 67.557 15.6146 66.7262 16.0881Z" fill="#316AFF"/>
</g>
</svg>
